<?xml version="1.0" encoding="UTF-8"?>
<svg xmlns="http://www.w3.org/2000/svg" width="800" height="600" viewBox="0 0 800 600" version="1.1">
  <title>Box Left Face</title>
  <path d="M71.34 166.73L70.99 169.23 70.86 171.76 70.67 205.57 70.61 244.64 70.76 289.74 71.25 364.72 71.46 378.26 71.89 391.78 72.35 399.16 73.14 406.5 73.7 409.64 74.59 412.71 75.78 415.68 76.83 417.79 78 419.84 81.07 424.51 84.45 428.95 85.99 430.72 87.62 432.41 90.75 435.2 94.1 437.73 97.65 439.97 200.83 499.23 304.6 558.64 307.95 560.35 311.43 561.74 315.03 562.79 315.62 562.8 316.15 562.56 316.53 562.11 316.67 561.54 317.18 538.21 317.4 520.3 317.46 502.38 317.27 430.89 316.74 298.31 250.2 260.64 220.68 243.93 186.89 224.81 154.14 206.29 128.1 191.57 72.54 160.16 71.34 166.73Z"
    fill="tan" stroke="#8B7355" stroke-width="1.5" stroke-linejoin="round"/>
</svg>
