<?xml version="1.0" encoding="UTF-8"?>
<svg xmlns="http://www.w3.org/2000/svg" width="800" height="600" viewBox="0 0 800 600" version="1.1">
  <title>Box Lid Panel</title>
  <path d="M144.33 96.9L123.62 108.82 106.06 119.2 90.76 128.43 90.13 128.99 89.72 129.74 89.67 130.24 89.85 130.72 90.22 131.07 125.22 151.57 144.9 163.01 164.63 174.36 211.58 201.02 334.16 270.14 390.4 238.5 411.92 226.32 429.94 215.98 445.98 206.67 446.09 206.56 446.11 206.4 446.04 206.26 445.13 205.57 322.15 136.03 198.92 66.35 198.38 66.23 198.26 66.26 182.44 75.24 165.01 85.14 144.33 96.9Z"
    fill="tan" stroke="#8B7355" stroke-width="1.5" stroke-linejoin="round"/>
</svg>
