<?xml version="1.0" encoding="UTF-8"?>
<svg xmlns="http://www.w3.org/2000/svg" width="800" height="600" viewBox="0 0 800 600" version="1.1">
  <title>Box Lid Top Flap</title>
  <path d="M305.78 7.19L302.28 8.69 298.83 10.32 287.66 16.02 274.98 22.79 262.42 29.81 242.65 41.2 239.63 43.11 236.77 45.24 236.11 45.96 235.71 46.85 235.59 47.82 235.79 48.76 236.27 49.6 236.99 50.25 242.28 53.52 247.66 56.64 357.71 118.54 469.4 181.34 473.07 183.3 476.81 185.1 478.18 185.52 479.61 185.58 481 185.27 485.27 183.62 489.46 181.75 496.42 178.3 503.27 174.64 530.52 159.44 549.34 148.67 557.23 144.02 565.07 139.28 578.63 130.94 578.96 130.62 579.12 130.19 579.08 129.74 578.46 128.41 577.54 127.28 576.38 126.42 473.93 68.5 376.78 13.75 371.29 10.85 365.67 8.24 359.91 5.92 355.73 4.52 351.46 3.41 347.13 2.6 342.46 2.04 337.77 1.75 333.07 1.72 328.32 1.97 323.59 2.48 318.89 3.27 314.44 4.29 310.06 5.6 305.78 7.19Z"
    fill="tan" stroke="#8B7355" stroke-width="1.5" stroke-linejoin="round"/>
</svg>
