<?xml version="1.0" encoding="UTF-8"?>
<svg xmlns="http://www.w3.org/2000/svg" width="800" height="600" viewBox="0 0 800 600" version="1.1">
  <title>Box Right Face</title>
  <path d="M597.78 345.33L598.09 291.82 598.22 248.09 598.06 209.69 597.72 176.97 597.53 173.42 597.05 169.91 595.36 160.27 473.28 229.16 351.19 298.05 351.12 430.61 351.19 481.43 351.48 524.22 351.88 562.58 352.06 562.99 352.47 563.16 354.37 562.99 356.22 562.5 357.96 561.7 464.28 500.95 475.01 494.81 474.81 488.44 474.89 482.06 475.26 475.7 475.89 469.44 476.81 463.21 478 457.03 479.46 450.9 481.18 444.85 483.18 438.88 485.43 433 487.94 427.23 490.7 421.57 493.71 416.04 496.09 412 498.56 408 501.09 404.21 503.77 400.54 506.63 396.97 509.63 393.53 516.26 386.54 520.72 382.21 525.36 378.07 530.17 374.12 535.13 370.38 540.24 366.87 545.5 363.59 550.91 360.55 556.44 357.75 562.08 355.2 567.84 352.9 573.69 350.87 579.62 349.09 585.62 347.58 591.68 346.33 597.78 345.33Z"
    fill="tan" stroke="#8B7355" stroke-width="1.5" stroke-linejoin="round"/>
</svg>
