<?xml version="1.0" encoding="UTF-8"?>
<svg xmlns="http://www.w3.org/2000/svg" width="800" height="600" viewBox="0 0 800 600" version="1.1">
  <title>Hammer</title>
  <!-- Hammer head -->
  <path d="M648.57 417.47L651.48 418.18 654.35 419.08 656.73 420.05 659 421.25 661.41 422.84 663.69 424.61 666.76 427.32 669.75 430.11 676 436.4 677.48 438.16 678.72 440.1 679.42 441.76 679.77 443.52 679.87 445.82 679.73 448.11 679.57 450.29 679.58 452.47 679.71 453.36 680.02 454.2 680.49 454.95 681.09 455.55 681.8 456 682.6 456.27 684.5 456.58 686.42 456.68 688.84 456.81 689.71 456.97 690.55 457.24 691.37 457.65 692.13 458.15 694.2 459.86 695.78 461.48 697.13 463.3 697.55 464.19 697.69 465.16 697.55 466.14 697.09 467.36 696.45 468.49 695.64 469.52 692.6 472.74 689.48 475.88 686.05 479.12 683.05 481.7 680.57 483.6 680.06 483.87 679.48 483.96 678.32 483.84 677.2 483.49 676.18 482.92 674.55 481.54 673.17 479.91 672.03 477.97 671.21 475.88 670.92 474.56 670.83 473.22 670.94 471.88 671.13 470.06 671.11 469.44 670.98 468.82 670.76 468.27 670.45 467.78 669.41 466.62 668.15 465.61 667.64 465.34 667.09 465.17 666.47 465.1 665.83 465.13 663.83 465.5 661.41 465.98 658.96 466.3 657.41 466.26 655.91 465.84 654.31 465.01 652.87 463.92 647.36 458.68 644.49 455.73 641.73 452.68 640.93 451.61 640.31 450.43 639.89 449.17 639.69 447.91 639.71 446.63 639.96 445.38 641.06 441.94 642.31 438.55 643.32 435.95 644.13 433.73 644.79 431.81 644.8 431.7 644.74 431.62 644.54 431.5 643.68 431.18 642.65 430.81 641.49 430.41 639.69 429.91 637.85 429.6 635.78 429.46 633.7 429.49 631.38 429.69 629.07 430.05 626.48 430.62 623.92 431.31 619.21 432.5 617.89 432.63 616.57 432.47 615.7 432.08 615.05 431.37 614.55 430.27 614.28 429.1 614.32 427.95 614.69 426.86 615.46 425.63 616.41 424.54 617.82 423.3 619.37 422.22 621.41 421.05 623.51 420 626.51 418.74 629.59 417.72 632.55 417 635.56 416.56 638.66 416.38 641.76 416.48 645.18 416.86 648.57 417.47Z"
    fill="black" stroke="black" stroke-width="1.5" stroke-linejoin="round"/>
  <!-- Hammer handle -->
  <path d="M642.96 463.08L648.44 468.6 612.55 509.06 592.23 531.89 587.35 537.28 582.39 542.59 576.3 548.75 575.45 549.44 574.5 549.97 573.47 550.32 571.87 550.59 570.25 550.59 568.73 550.33 567.29 549.79 565.63 548.84 564.11 547.68 562.06 545.8 560.09 543.83 557.96 541.42 556.02 538.85 555.28 537.59 554.74 536.23 554.41 534.8 554.34 533.52 554.53 532.25 554.95 531.05 556.12 528.97 557.59 527.1 559.72 524.91 561.96 522.84 598.13 491.12 636.06 457.9 636.49 457.65 636.98 457.56 637.31 457.69 638.95 459.18 640.83 460.96 642.96 463.08Z"
    fill="black" stroke="black" stroke-width="1.5" stroke-linejoin="round"/>
</svg>
